<svg xmlns="http://www.w3.org/2000/svg" xmlns:xlink="http://www.w3.org/1999/xlink" width="1094.72" height="555.56"><g transform="translate(0 0)"><path d="M44.7 182.2c0-2.77 2.23-5 5-5h947.5c2.75 0 5-2.25 5-5v-2.5c0-2.77 1.5-3.34 3.34-1.3l15.8 17.57c1.85 2.06 1.85 5.4 0 7.44l-15.8 17.57c-1.85 2.06-3.35 1.48-3.35-1.28v-2.5c0-2.77-2.25-5-5-5H49.7c-2.77 0-5-2.25-5-5z" stroke="#666" stroke-width="2"/><use xlink:href="#a" transform="matrix(1,0,0,1,44.69135802469134,177.19135802469137) translate(484.5 17.9)"/><path d="M300 130V65" stroke="#999" stroke-width="2" fill="none"/><path d="M300 65l4.64 14.27h-9.28z" stroke="#999" stroke-width="2" fill="#999"/><path d="M144.65 65v64.04" stroke="#999" stroke-width="2" fill="none"/><path d="M144.65 129.04l-4.63-14.26h9.27z" fill="#999"/><path d="M145.4 130h-.4l-1.03.17-5.33-16.4h12.02zm-4-14.22l3.25 10.03 3.26-10.02z" fill="#999"/><path d="M140 135c0-2.76 2.24-5 5-5h150c2.76 0 5 2.24 5 5v110c0 2.76-2.24 5-5 5H145c-2.76 0-5-2.24-5-5z" stroke="#666" stroke-width="2" fill="#3aa6dd"/><use xlink:href="#b" transform="matrix(1,0,0,1,145,135) translate(14.074999999999996 58.6)"/><use xlink:href="#c" transform="matrix(1,0,0,1,145,135) translate(75.975 58.6)"/><path d="M459.65 60v64.04" stroke="#999" stroke-width="2" fill="none"/><path d="M459.65 124.04l-4.63-14.26h9.27z" fill="#999"/><path d="M460.4 125h-.4l-1.03.17-5.33-16.4h12.02zm-4-14.22l3.25 10.03 3.26-10.02z" fill="#999"/><path d="M615 125V60" stroke="#999" stroke-width="2" fill="none"/><path d="M615 60l4.64 14.27h-9.28z" stroke="#999" stroke-width="2" fill="#999"/><path d="M455 130c0-2.76 2.24-5 5-5h150c2.76 0 5 2.24 5 5v110c0 2.76-2.24 5-5 5H460c-2.76 0-5-2.24-5-5z" stroke="#666" stroke-width="2" fill="#3aa6dd"/><use xlink:href="#b" transform="matrix(1,0,0,1,460,130) translate(14.074999999999996 58.6)"/><use xlink:href="#c" transform="matrix(1,0,0,1,460,130) translate(75.975 58.6)"/><path d="M764.65 60v64.04" stroke="#999" stroke-width="2" fill="none"/><path d="M764.65 124.04l-4.63-14.26h9.27z" fill="#999"/><path d="M765.4 125h-.4l-1.03.17-5.33-16.4h12.02zm-4-14.22l3.25 10.03 3.26-10.02z" fill="#999"/><path d="M920 125V60" stroke="#999" stroke-width="2" fill="none"/><path d="M920 60l4.64 14.27h-9.28z" stroke="#999" stroke-width="2" fill="#999"/><path d="M760 130c0-2.76 2.24-5 5-5h150c2.76 0 5 2.24 5 5v110c0 2.76-2.24 5-5 5H765c-2.76 0-5-2.24-5-5z" stroke="#666" stroke-width="2" fill="#3aa6dd"/><use xlink:href="#b" transform="matrix(1,0,0,1,765,130) translate(14.074999999999996 58.6)"/><use xlink:href="#c" transform="matrix(1,0,0,1,765,130) translate(75.975 58.6)"/><path d="M24.7 29.7c0-2.77 2.23-5 5-5h230c2.75 0 5 2.23 5 5v50c0 2.75-2.25 5-5 5h-230c-2.77 0-5-2.25-5-5z" fill="none"/><use xlink:href="#d" transform="matrix(1,0,0,1,29.691358024720103,29.691358024720103) translate(93.525 28.6)"/><path d="M180 29.7c0-2.77 2.24-5 5-5h230c2.76 0 5 2.23 5 5v50c0 2.75-2.24 5-5 5H185c-2.76 0-5-2.25-5-5z" fill="none"/><use xlink:href="#e" transform="matrix(1,0,0,1,185,29.691358024720103) translate(94.25 28.6)"/><path d="M-40 135c0-2.76 2.24-5 5-5h230c2.76 0 5 2.24 5 5v50c0 2.76-2.24 5-5 5H-35c-2.76 0-5-2.24-5-5z" fill="none"/><use xlink:href="#f" transform="matrix(1,0,0,1,-35,135) translate(80.05 28.6)"/><path d="M265 135c0-2.76 2.24-5 5-5h230c2.76 0 5 2.24 5 5v50c0 2.76-2.24 5-5 5H270c-2.76 0-5-2.24-5-5z" fill="none"/><use xlink:href="#f" transform="matrix(1,0,0,1,270,135) translate(80.05 28.6)"/><path d="M570 135c0-2.76 2.24-5 5-5h230c2.76 0 5 2.24 5 5v50c0 2.76-2.24 5-5 5H575c-2.76 0-5-2.24-5-5z" fill="none"/><use xlink:href="#f" transform="matrix(1,0,0,1,575,135) translate(80.05 28.6)"/><path d="M840 135c0-2.76 2.24-5 5-5h230c2.76 0 5 2.24 5 5v50c0 2.76-2.24 5-5 5H845c-2.76 0-5-2.24-5-5z" fill="none"/><use xlink:href="#f" transform="matrix(1,0,0,1,845,135) translate(80.05 28.6)"/><path d="M59.4 432.5c0-2.76 2.25-5 5-5h947.5c2.77 0 5-2.24 5-5V420c0-2.76 1.5-3.34 3.35-1.28l15.8 17.56c1.86 2.06 1.86 5.38 0 7.44l-15.8 17.56c-1.85 2.06-3.34 1.48-3.34-1.28v-2.5c0-2.76-2.23-5-5-5H64.4c-2.75 0-5-2.24-5-5z" stroke="#666" stroke-width="2"/><use xlink:href="#a" transform="matrix(1,0,0,1,59.40740740740705,427.49999999997124) translate(484.5 17.9)"/><path d="M435.3 375v-65" stroke="#999" stroke-width="2" fill="none"/><path d="M435.3 310l4.64 14.27h-9.27z" stroke="#999" stroke-width="2" fill="#999"/><path d="M279.96 310v64.04" stroke="#999" stroke-width="2" fill="none"/><path d="M279.96 374.04l-4.63-14.26h9.27z" fill="#999"/><path d="M280.7 375h-.4l-1.03.17-5.32-16.4h12.02zm-4-14.22l3.26 10.03 3.26-10.02z" fill="#999"/><path d="M275.3 380c0-2.76 2.25-5 5-5h150c2.77 0 5 2.24 5 5v110c0 2.76-2.23 5-5 5h-150c-2.75 0-5-2.24-5-5z" stroke="#666" stroke-width="2" fill="#ef8d22"/><use xlink:href="#g" transform="matrix(1,0,0,1,280.3086419752799,380) translate(14.074999999999996 58.6)"/><use xlink:href="#h" transform="matrix(1,0,0,1,280.3086419752799,380) translate(75.975 58.6)"/><path d="M60 385c0-2.76 2.24-5 5-5h230c2.76 0 5 2.24 5 5v50c0 2.76-2.24 5-5 5H65c-2.76 0-5-2.24-5-5z" fill="none"/><use xlink:href="#f" transform="matrix(1,0,0,1,65,385) translate(80.05 28.6)"/><path d="M795 385c0-2.76 2.24-5 5-5h230c2.76 0 5 2.24 5 5v50c0 2.76-2.24 5-5 5H800c-2.76 0-5-2.24-5-5z" fill="none"/><use xlink:href="#f" transform="matrix(1,0,0,1,800,385) translate(80.05 28.6)"/><path d="M639.96 310v64.04" stroke="#999" stroke-width="2" fill="none"/><path d="M639.96 374.04l-4.63-14.26h9.27z" fill="#999"/><path d="M640.7 375h-.4l-1.03.17-5.32-16.4h12.02zm-4-14.22l3.26 10.03 3.26-10.02z" fill="#999"/><path d="M795.3 375v-65" stroke="#999" stroke-width="2" fill="none"/><path d="M795.3 310l4.64 14.27h-9.27z" stroke="#999" stroke-width="2" fill="#999"/><path d="M635.3 380c0-2.76 2.25-5 5-5h150c2.77 0 5 2.24 5 5v110c0 2.76-2.23 5-5 5h-150c-2.75 0-5-2.24-5-5z" stroke="#666" stroke-width="2" fill="#ef8d22"/><g><use xlink:href="#g" transform="matrix(1,0,0,1,640.3086419752799,380) translate(14.074999999999996 58.6)"/><use xlink:href="#h" transform="matrix(1,0,0,1,640.3086419752799,380) translate(75.975 58.6)"/></g><path d="M420 385c0-2.76 2.24-5 5-5h230c2.76 0 5 2.24 5 5v50c0 2.76-2.24 5-5 5H425c-2.76 0-5-2.24-5-5z" fill="none"/><g><use xlink:href="#f" transform="matrix(1,0,0,1,425,385) translate(80.05 28.6)"/></g><defs><path fill="#333" d="M197 0v-115H63V0H30v-248h33v105h134v-105h34V0h-34" id="i"/><path fill="#333" d="M141-36C126-15 110 5 73 4 37 3 15-17 15-53c-1-64 63-63 125-63 3-35-9-54-41-54-24 1-41 7-42 31l-33-3c5-37 33-52 76-52 45 0 72 20 72 64v82c-1 20 7 32 28 27v20c-31 9-61-2-59-35zM48-53c0 20 12 33 32 33 41-3 63-29 60-74-43 2-92-5-92 41" id="j"/><path fill="#333" d="M117-194c89-4 53 116 60 194h-32v-121c0-31-8-49-39-48C34-167 62-67 57 0H25l-1-190h30c1 10-1 24 2 32 11-22 29-35 61-36" id="k"/><path fill="#333" d="M85-194c31 0 48 13 60 33l-1-100h32l1 261h-30c-2-10 0-23-3-31C134-8 116 4 85 4 32 4 16-35 15-94c0-66 23-100 70-100zm9 24c-40 0-46 34-46 75 0 40 6 74 45 74 42 0 51-32 51-76 0-42-9-74-50-73" id="l"/><path fill="#333" d="M24 0v-261h32V0H24" id="m"/><path fill="#333" d="M100-194c63 0 86 42 84 106H49c0 40 14 67 53 68 26 1 43-12 49-29l28 8c-11 28-37 45-77 45C44 4 14-33 15-96c1-61 26-98 85-98zm52 81c6-60-76-77-97-28-3 7-6 17-6 28h103" id="n"/><g id="b"><use transform="matrix(0.05,0,0,0.05,0,0)" xlink:href="#i"/><use transform="matrix(0.05,0,0,0.05,12.950000000000001,0)" xlink:href="#j"/><use transform="matrix(0.05,0,0,0.05,22.950000000000003,0)" xlink:href="#k"/><use transform="matrix(0.05,0,0,0.05,32.95,0)" xlink:href="#l"/><use transform="matrix(0.05,0,0,0.05,42.95,0)" xlink:href="#m"/><use transform="matrix(0.05,0,0,0.05,46.900000000000006,0)" xlink:href="#n"/></g><path fill="#333" d="M114-163C36-179 61-72 57 0H25l-1-190h30c1 12-1 29 2 39 6-27 23-49 58-41v29" id="o"/><path fill="#333" d="M145-31C134-9 116 4 85 4 32 4 16-35 15-94c0-59 17-99 70-100 32-1 48 14 60 33 0-11-1-24 2-32h30l-1 268h-32zM93-21c41 0 51-33 51-76s-8-73-50-73c-40 0-46 35-46 75s5 74 45 74" id="p"/><path fill="#333" d="M84 4C-5 8 30-112 23-190h32v120c0 31 7 50 39 49 72-2 45-101 50-169h31l1 190h-30c-1-10 1-25-2-33-11 22-28 36-60 37" id="q"/><path fill="#333" d="M135-143c-3-34-86-38-87 0 15 53 115 12 119 90S17 21 10-45l28-5c4 36 97 45 98 0-10-56-113-15-118-90-4-57 82-63 122-42 12 7 21 19 24 35" id="r"/><path fill="#333" d="M59-47c-2 24 18 29 38 22v24C64 9 27 4 27-40v-127H5v-23h24l9-43h21v43h35v23H59v120" id="s"/><g id="c"><use transform="matrix(0.05,0,0,0.05,0,0)" xlink:href="#o"/><use transform="matrix(0.05,0,0,0.05,5.95,0)" xlink:href="#n"/><use transform="matrix(0.05,0,0,0.05,15.949999999999998,0)" xlink:href="#p"/><use transform="matrix(0.05,0,0,0.05,25.950000000000003,0)" xlink:href="#q"/><use transform="matrix(0.05,0,0,0.05,35.95,0)" xlink:href="#n"/><use transform="matrix(0.05,0,0,0.05,45.95,0)" xlink:href="#r"/><use transform="matrix(0.05,0,0,0.05,54.95,0)" xlink:href="#s"/></g><path fill="#333" d="M233-177c-1 41-23 64-60 70L243 0h-38l-65-103H63V0H30v-248c88 3 205-21 203 71zM63-129c60-2 137 13 137-47 0-61-80-42-137-45v92" id="t"/><g id="d"><use transform="matrix(0.05,0,0,0.05,0,0)" xlink:href="#t"/><use transform="matrix(0.05,0,0,0.05,12.950000000000001,0)" xlink:href="#n"/><use transform="matrix(0.05,0,0,0.05,22.950000000000003,0)" xlink:href="#j"/><use transform="matrix(0.05,0,0,0.05,32.95,0)" xlink:href="#l"/></g><path fill="#333" d="M266 0h-40l-56-210L115 0H75L2-248h35L96-30l15-64 43-154h32l59 218 59-218h35" id="u"/><path fill="#333" d="M24-231v-30h32v30H24zM24 0v-190h32V0H24" id="v"/><g id="e"><use transform="matrix(0.05,0,0,0.05,0,0)" xlink:href="#u"/><use transform="matrix(0.05,0,0,0.05,16.599999999999998,0)" xlink:href="#o"/><use transform="matrix(0.05,0,0,0.05,22.549999999999997,0)" xlink:href="#v"/><use transform="matrix(0.05,0,0,0.05,26.499999999999996,0)" xlink:href="#s"/><use transform="matrix(0.05,0,0,0.05,31.499999999999996,0)" xlink:href="#n"/></g><path fill="#333" d="M185-189c-5-48-123-54-124 2 14 75 158 14 163 119 3 78-121 87-175 55-17-10-28-26-33-46l33-7c5 56 141 63 141-1 0-78-155-14-162-118-5-82 145-84 179-34 5 7 8 16 11 25" id="w"/><path fill="#333" d="M115-194c55 1 70 41 70 98S169 2 115 4C84 4 66-9 55-30l1 105H24l-1-265h31l2 30c10-21 28-34 59-34zm-8 174c40 0 45-34 45-75s-6-73-45-74c-42 0-51 32-51 76 0 43 10 73 51 73" id="x"/><path fill="#333" d="M177-190C167-65 218 103 67 71c-23-6-38-20-44-43l32-5c15 47 100 32 89-28v-30C133-14 115 1 83 1 29 1 15-40 15-95c0-56 16-97 71-98 29-1 48 16 59 35 1-10 0-23 2-32h30zM94-22c36 0 50-32 50-73 0-42-14-75-50-75-39 0-46 34-46 75s6 73 46 73" id="y"/><g id="f"><use transform="matrix(0.05,0,0,0.05,0,0)" xlink:href="#w"/><use transform="matrix(0.05,0,0,0.05,12,0)" xlink:href="#m"/><use transform="matrix(0.05,0,0,0.05,15.949999999999998,0)" xlink:href="#n"/><use transform="matrix(0.05,0,0,0.05,25.950000000000003,0)" xlink:href="#n"/><use transform="matrix(0.05,0,0,0.05,35.95,0)" xlink:href="#x"/><use transform="matrix(0.05,0,0,0.05,45.95,0)" xlink:href="#v"/><use transform="matrix(0.05,0,0,0.05,49.900000000000006,0)" xlink:href="#k"/><use transform="matrix(0.05,0,0,0.05,59.900000000000006,0)" xlink:href="#y"/></g><g id="g"><use transform="matrix(0.05,0,0,0.05,0,0)" xlink:href="#i"/><use transform="matrix(0.05,0,0,0.05,12.950000000000001,0)" xlink:href="#j"/><use transform="matrix(0.05,0,0,0.05,22.950000000000003,0)" xlink:href="#k"/><use transform="matrix(0.05,0,0,0.05,32.95,0)" xlink:href="#l"/><use transform="matrix(0.05,0,0,0.05,42.95,0)" xlink:href="#m"/><use transform="matrix(0.05,0,0,0.05,46.900000000000006,0)" xlink:href="#n"/></g><g id="h"><use transform="matrix(0.05,0,0,0.05,0,0)" xlink:href="#o"/><use transform="matrix(0.05,0,0,0.05,5.95,0)" xlink:href="#n"/><use transform="matrix(0.05,0,0,0.05,15.949999999999998,0)" xlink:href="#p"/><use transform="matrix(0.05,0,0,0.05,25.950000000000003,0)" xlink:href="#q"/><use transform="matrix(0.05,0,0,0.05,35.95,0)" xlink:href="#n"/><use transform="matrix(0.05,0,0,0.05,45.95,0)" xlink:href="#r"/><use transform="matrix(0.05,0,0,0.05,54.95,0)" xlink:href="#s"/></g></defs></g></svg>