<svg xmlns="http://www.w3.org/2000/svg" xmlns:xlink="http://www.w3.org/1999/xlink" width="1049.38" height="308.64"><g transform="translate(0 0)"><path d="M44.7 182.2c0-2.77 2.23-5 5-5h947.5c2.75 0 5-2.25 5-5v-2.5c0-2.77 1.5-3.34 3.34-1.3l15.8 17.57c1.85 2.06 1.85 5.4 0 7.44l-15.8 17.57c-1.85 2.06-3.35 1.48-3.35-1.28v-2.5c0-2.77-2.25-5-5-5H49.7c-2.77 0-5-2.25-5-5z" stroke="#666" stroke-width="2"/><use xlink:href="#a" transform="matrix(1,0,0,1,44.69135802469134,177.19135802469137) translate(484.5 17.9)"/><path d="M200 129.7v-65" stroke="#999" stroke-width="2" fill="none"/><path d="M200 64.7l4.64 14.26h-9.28z" stroke="#999" stroke-width="2" fill="#999"/><path d="M44.65 64.7v64.03" stroke="#999" stroke-width="2" fill="none"/><path d="M44.65 128.73l-4.63-14.26h9.27z" fill="#999"/><path d="M45.4 129.7H45l-1.03.16-5.33-16.4h12.02zm-4-14.23l3.25 10.03 3.26-10.03z" fill="#999"/><path d="M40 134.7c0-2.77 2.24-5 5-5h150c2.76 0 5 2.23 5 5v110c0 2.75-2.24 5-5 5H45c-2.76 0-5-2.25-5-5z" stroke="#666" stroke-width="2" fill="#3aa6dd"/><use xlink:href="#b" transform="matrix(1,0,0,1,44.99999999999997,134.69135802469137) translate(14.074999999999996 58.6)"/><use xlink:href="#c" transform="matrix(1,0,0,1,44.99999999999997,134.69135802469137) translate(75.975 58.6)"/><path d="M380 130V65" stroke="#999" stroke-width="2" fill="none"/><path d="M380 65l4.64 14.27h-9.28z" stroke="#999" stroke-width="2" fill="#999"/><path d="M224.65 65v64.04" stroke="#999" stroke-width="2" fill="none"/><path d="M224.65 129.04l-4.63-14.26h9.27z" fill="#999"/><path d="M225.4 130h-.4l-1.03.17-5.33-16.4h12.02zm-4-14.22l3.25 10.03 3.26-10.02z" fill="#999"/><path d="M220 135c0-2.76 2.24-5 5-5h150c2.76 0 5 2.24 5 5v110c0 2.76-2.24 5-5 5H225c-2.76 0-5-2.24-5-5z" stroke="#666" stroke-width="2" fill="#ef8d22"/><use xlink:href="#b" transform="matrix(1,0,0,1,225,135) translate(14.074999999999996 58.6)"/><use xlink:href="#c" transform="matrix(1,0,0,1,225,135) translate(75.975 58.6)"/><path d="M404.65 65v64.04" stroke="#999" stroke-width="2" fill="none"/><path d="M404.65 129.04l-4.63-14.26h9.27z" fill="#999"/><path d="M405.4 130h-.4l-1.03.17-5.33-16.4h12.02zm-4-14.22l3.25 10.03 3.26-10.02z" fill="#999"/><path d="M560 130V65" stroke="#999" stroke-width="2" fill="none"/><path d="M560 65l4.64 14.27h-9.28z" stroke="#999" stroke-width="2" fill="#999"/><path d="M400 135c0-2.76 2.24-5 5-5h150c2.76 0 5 2.24 5 5v110c0 2.76-2.24 5-5 5H405c-2.76 0-5-2.24-5-5z" stroke="#666" stroke-width="2" fill="#3aa6dd"/><use xlink:href="#b" transform="matrix(1,0,0,1,405,135) translate(14.074999999999996 58.6)"/><use xlink:href="#c" transform="matrix(1,0,0,1,405,135) translate(75.975 58.6)"/><path d="M584.65 60v64.04" stroke="#999" stroke-width="2" fill="none"/><path d="M584.65 124.04l-4.63-14.26h9.27z" fill="#999"/><path d="M585.4 125h-.4l-1.03.17-5.33-16.4h12.02zm-4-14.22l3.25 10.03 3.26-10.02z" fill="#999"/><path d="M740 125V60" stroke="#999" stroke-width="2" fill="none"/><path d="M740 60l4.64 14.27h-9.28z" stroke="#999" stroke-width="2" fill="#999"/><path d="M580 130c0-2.76 2.24-5 5-5h150c2.76 0 5 2.24 5 5v110c0 2.76-2.24 5-5 5H585c-2.76 0-5-2.24-5-5z" stroke="#666" stroke-width="2" fill="#ef8d22"/><use xlink:href="#b" transform="matrix(1,0,0,1,585,130) translate(14.074999999999996 58.6)"/><use xlink:href="#c" transform="matrix(1,0,0,1,585,130) translate(75.975 58.6)"/><path d="M764.65 60v64.04" stroke="#999" stroke-width="2" fill="none"/><path d="M764.65 124.04l-4.63-14.26h9.27z" fill="#999"/><path d="M765.4 125h-.4l-1.03.17-5.33-16.4h12.02zm-4-14.22l3.25 10.03 3.26-10.02z" fill="#999"/><path d="M920 125V60" stroke="#999" stroke-width="2" fill="none"/><path d="M920 60l4.64 14.27h-9.28z" stroke="#999" stroke-width="2" fill="#999"/><path d="M760 130c0-2.76 2.24-5 5-5h150c2.76 0 5 2.24 5 5v110c0 2.76-2.24 5-5 5H765c-2.76 0-5-2.24-5-5z" stroke="#666" stroke-width="2" fill="#3aa6dd"/><g><use xlink:href="#b" transform="matrix(1,0,0,1,765,130) translate(14.074999999999996 58.6)"/><use xlink:href="#c" transform="matrix(1,0,0,1,765,130) translate(75.975 58.6)"/></g><defs><path fill="#333" d="M197 0v-115H63V0H30v-248h33v105h134v-105h34V0h-34" id="d"/><path fill="#333" d="M141-36C126-15 110 5 73 4 37 3 15-17 15-53c-1-64 63-63 125-63 3-35-9-54-41-54-24 1-41 7-42 31l-33-3c5-37 33-52 76-52 45 0 72 20 72 64v82c-1 20 7 32 28 27v20c-31 9-61-2-59-35zM48-53c0 20 12 33 32 33 41-3 63-29 60-74-43 2-92-5-92 41" id="e"/><path fill="#333" d="M117-194c89-4 53 116 60 194h-32v-121c0-31-8-49-39-48C34-167 62-67 57 0H25l-1-190h30c1 10-1 24 2 32 11-22 29-35 61-36" id="f"/><path fill="#333" d="M85-194c31 0 48 13 60 33l-1-100h32l1 261h-30c-2-10 0-23-3-31C134-8 116 4 85 4 32 4 16-35 15-94c0-66 23-100 70-100zm9 24c-40 0-46 34-46 75 0 40 6 74 45 74 42 0 51-32 51-76 0-42-9-74-50-73" id="g"/><path fill="#333" d="M24 0v-261h32V0H24" id="h"/><path fill="#333" d="M100-194c63 0 86 42 84 106H49c0 40 14 67 53 68 26 1 43-12 49-29l28 8c-11 28-37 45-77 45C44 4 14-33 15-96c1-61 26-98 85-98zm52 81c6-60-76-77-97-28-3 7-6 17-6 28h103" id="i"/><g id="b"><use transform="matrix(0.05,0,0,0.05,0,0)" xlink:href="#d"/><use transform="matrix(0.05,0,0,0.05,12.950000000000001,0)" xlink:href="#e"/><use transform="matrix(0.05,0,0,0.05,22.950000000000003,0)" xlink:href="#f"/><use transform="matrix(0.05,0,0,0.05,32.95,0)" xlink:href="#g"/><use transform="matrix(0.05,0,0,0.05,42.95,0)" xlink:href="#h"/><use transform="matrix(0.05,0,0,0.05,46.900000000000006,0)" xlink:href="#i"/></g><path fill="#333" d="M114-163C36-179 61-72 57 0H25l-1-190h30c1 12-1 29 2 39 6-27 23-49 58-41v29" id="j"/><path fill="#333" d="M145-31C134-9 116 4 85 4 32 4 16-35 15-94c0-59 17-99 70-100 32-1 48 14 60 33 0-11-1-24 2-32h30l-1 268h-32zM93-21c41 0 51-33 51-76s-8-73-50-73c-40 0-46 35-46 75s5 74 45 74" id="k"/><path fill="#333" d="M84 4C-5 8 30-112 23-190h32v120c0 31 7 50 39 49 72-2 45-101 50-169h31l1 190h-30c-1-10 1-25-2-33-11 22-28 36-60 37" id="l"/><path fill="#333" d="M135-143c-3-34-86-38-87 0 15 53 115 12 119 90S17 21 10-45l28-5c4 36 97 45 98 0-10-56-113-15-118-90-4-57 82-63 122-42 12 7 21 19 24 35" id="m"/><path fill="#333" d="M59-47c-2 24 18 29 38 22v24C64 9 27 4 27-40v-127H5v-23h24l9-43h21v43h35v23H59v120" id="n"/><g id="c"><use transform="matrix(0.05,0,0,0.05,0,0)" xlink:href="#j"/><use transform="matrix(0.05,0,0,0.05,5.95,0)" xlink:href="#i"/><use transform="matrix(0.05,0,0,0.05,15.949999999999998,0)" xlink:href="#k"/><use transform="matrix(0.05,0,0,0.05,25.950000000000003,0)" xlink:href="#l"/><use transform="matrix(0.05,0,0,0.05,35.95,0)" xlink:href="#i"/><use transform="matrix(0.05,0,0,0.05,45.95,0)" xlink:href="#m"/><use transform="matrix(0.05,0,0,0.05,54.95,0)" xlink:href="#n"/></g></defs></g></svg>